<?xml version="1.0" encoding="UTF-8" standalone="no"?>
<!-- Created with Inkscape (http://www.inkscape.org/) -->

<svg
   xmlns:dc="http://purl.org/dc/elements/1.1/"
   xmlns:cc="http://creativecommons.org/ns#"
   xmlns:rdf="http://www.w3.org/1999/02/22-rdf-syntax-ns#"
   xmlns:svg="http://www.w3.org/2000/svg"
   xmlns="http://www.w3.org/2000/svg"
   xmlns:sodipodi="http://sodipodi.sourceforge.net/DTD/sodipodi-0.dtd"
   xmlns:inkscape="http://www.inkscape.org/namespaces/inkscape"
   width="50"
   height="50"
   viewBox="0 0 13.229166 13.229167"
   version="1.1"
   id="svg4928"
   inkscape:version="0.92.1 r15371"
   sodipodi:docname="logo.svg"
   inkscape:export-filename="C:\Users\bruno\projetos\simuladoquimica\src\assets\logo@3x.png"
   inkscape:export-xdpi="288"
   inkscape:export-ydpi="288">
  <defs
     id="defs4922" />
  <sodipodi:namedview
     id="base"
     pagecolor="#ffffff"
     bordercolor="#666666"
     borderopacity="1.0"
     inkscape:pageopacity="0.0"
     inkscape:pageshadow="2"
     inkscape:zoom="6.8472727"
     inkscape:cx="17.075652"
     inkscape:cy="24.667845"
     inkscape:document-units="mm"
     inkscape:current-layer="layer1"
     showgrid="false"
     units="px"
     inkscape:window-width="1366"
     inkscape:window-height="705"
     inkscape:window-x="-8"
     inkscape:window-y="-8"
     inkscape:window-maximized="1" />
  <metadata
     id="metadata4925">
    <rdf:RDF>
      <cc:Work
         rdf:about="">
        <dc:format>image/svg+xml</dc:format>
        <dc:type
           rdf:resource="http://purl.org/dc/dcmitype/StillImage" />
        <dc:title />
      </cc:Work>
    </rdf:RDF>
  </metadata>
  <g
     inkscape:label="Camada 1"
     inkscape:groupmode="layer"
     id="layer1"
     transform="translate(0,-283.77082)">
    <g
       id="g5529"
       transform="matrix(1.0840846,0,0,1.0840846,-0.58912631,-24.400264)">
      <rect
         inkscape:export-ydpi="92.160004"
         inkscape:export-xdpi="92.160004"
         inkscape:export-filename="C:\Users\bruno\projetos\simuladoquimica\assets\icon.png"
         ry="5.9740872"
         y="284.4032"
         x="0.70731384"
         height="11.948174"
         width="11.948174"
         id="rect4485"
         style="opacity:1;fill:#5fd3bc;fill-opacity:1;fill-rule:evenodd;stroke:none;stroke-width:0.06972997;stroke-linecap:round;stroke-linejoin:round;stroke-miterlimit:4;stroke-dasharray:none;stroke-dashoffset:15.11811066;stroke-opacity:1;paint-order:normal" />
      <rect
         inkscape:export-ydpi="92.160004"
         inkscape:export-xdpi="92.160004"
         inkscape:export-filename="C:\Users\bruno\projetos\simuladoquimica\assets\icon.png"
         ry="4.7792692"
         y="285.59802"
         x="1.9021316"
         height="9.5585384"
         width="9.5585384"
         id="rect4485-9"
         style="opacity:1;fill:#d7eef4;fill-opacity:1;fill-rule:evenodd;stroke:none;stroke-width:0.05578396;stroke-linecap:round;stroke-linejoin:round;stroke-miterlimit:4;stroke-dasharray:none;stroke-dashoffset:15.11811066;stroke-opacity:1;paint-order:normal" />
      <path
         inkscape:export-ydpi="92.160004"
         inkscape:export-xdpi="92.160004"
         inkscape:export-filename="C:\Users\bruno\projetos\simuladoquimica\assets\icon.png"
         style="fill:#5599ff;stroke-width:0.11482976"
         inkscape:connector-curvature="0"
         d="m 6.6778384,286.84631 -0.2411431,-0.24113 -0.6545294,0.65453 H 5.1276357 l 0.9875365,-0.98755 -0.2411423,-0.25262 c -0.045929,-0.0459 -0.1148304,-0.0459 -0.1607624,0 -0.045929,0.046 -0.045929,0.11483 0,0.16076 l 0.080381,0.0804 -1.7109634,1.69948 c -0.183728,0.18373 -0.183728,0.4708 0,0.65453 0.183728,0.18373 0.4708022,0.18373 0.6545302,0 l 1.6994802,-1.688 0.080381,0.0804 c 0.045938,0.046 0.1148304,0.046 0.1607624,0 0.045938,-0.046 0.045938,-0.11482 0,-0.16076 z m -2.1013857,1.60763 c -0.091864,0.0919 -0.2411423,0.0919 -0.3330063,0 -0.091863,-0.0919 -0.091863,-0.22967 0,-0.32153 l 0.7578765,-0.75788 h 0.6545303 z"
         id="path4527" />
      <g
         inkscape:export-ydpi="92.160004"
         inkscape:export-xdpi="92.160004"
         inkscape:export-filename="C:\Users\bruno\projetos\simuladoquimica\assets\icon.png"
         style="fill:#00aa88"
         transform="matrix(0.0761538,0,0,0.0761538,7.0579174,291.90924)"
         id="g4693">
        <g
           style="fill:#00aa88"
           id="Layer_1" />
        <g
           style="fill:#00aa88"
           transform="matrix(1.3788072,0,0,1.3788072,-13.131983,-53.03301)"
           id="book_x5F_alt2">
          <path
             inkscape:connector-curvature="0"
             d="M 16,4 C 16,4 12,0 0,0 v 24 c 12.125,0 16,4 16,4 0,0 3.875,-4 16,-4 V 0 C 20,0 16,4 16,4 Z M 4,4 c 5.084,0.426 8.203,1.602 10,2.555 V 22.664 C 12.203,21.715 9.084,20.539 4,20.109 Z m 24,16.109 c -5.086,0.43 -8.205,1.605 -10,2.555 V 6.555 C 19.795,5.602 22.914,4.426 28,4 Z"
             style="fill:#00aa88"
             id="path4679" />
        </g>
      </g>
      <flowRoot
         inkscape:export-ydpi="92.160004"
         inkscape:export-xdpi="92.160004"
         inkscape:export-filename="C:\Users\bruno\projetos\simuladoquimica\assets\icon.png"
         transform="matrix(0.0489047,0,0,0.0489047,-2.6042334,267.15256)"
         style="font-style:normal;font-variant:normal;font-weight:normal;font-stretch:normal;font-size:40px;line-height:1.25;font-family:'Eras Bold ITC';-inkscape-font-specification:'Eras Bold ITC, Normal';font-variant-ligatures:normal;font-variant-caps:normal;font-variant-numeric:normal;font-feature-settings:normal;text-align:start;letter-spacing:0px;word-spacing:0px;writing-mode:lr-tb;text-anchor:start;fill:#004455;fill-opacity:1;stroke:none"
         id="flowRoot4780-1-4"
         xml:space="preserve"><flowRegion
           style="font-style:normal;font-variant:normal;font-weight:normal;font-stretch:normal;font-size:40px;font-family:'Eras Bold ITC';-inkscape-font-specification:'Eras Bold ITC, Normal';font-variant-ligatures:normal;font-variant-caps:normal;font-variant-numeric:normal;font-feature-settings:normal;text-align:start;writing-mode:lr-tb;text-anchor:start;fill:#004455"
           id="flowRegion4782-2-1"><rect
             style="font-style:normal;font-variant:normal;font-weight:normal;font-stretch:normal;font-size:40px;font-family:'Eras Bold ITC';-inkscape-font-specification:'Eras Bold ITC, Normal';font-variant-ligatures:normal;font-variant-caps:normal;font-variant-numeric:normal;font-feature-settings:normal;text-align:start;writing-mode:lr-tb;text-anchor:start;fill:#004455"
             y="488.94824"
             x="117.14286"
             height="47.857124"
             width="157.14285"
             id="rect4784-7-5" /></flowRegion><flowPara
           id="flowPara4786-3-1">SimQui</flowPara></flowRoot>    </g>
  </g>
</svg>
